<svg xmlns="http://www.w3.org/2000/svg" viewBox="0 0 64 64" id="analytics-filter-data"><path fill="#f6cc4f" d="M57.625,25h0a1.35,1.35,0,0,1-1.285-.895,12,12,0,0,0-.567-1.368,1.353,1.353,0,0,1,.276-1.543,1.375,1.375,0,0,0,0-1.945l-2.3-2.3a1.375,1.375,0,0,0-1.945,0,1.353,1.353,0,0,1-1.543.276,12,12,0,0,0-1.368-.567,1.351,1.351,0,0,1-.9-1.285h0A1.376,1.376,0,0,0,46.625,14h-3.25A1.376,1.376,0,0,0,42,15.375h0a1.351,1.351,0,0,1-.9,1.285,12,12,0,0,0-1.368.567,1.353,1.353,0,0,1-1.543-.276,1.375,1.375,0,0,0-1.945,0l-2.3,2.3a1.375,1.375,0,0,0,0,1.945,1.353,1.353,0,0,1,.276,1.543,12,12,0,0,0-.567,1.368A1.35,1.35,0,0,1,32.376,25h0A1.376,1.376,0,0,0,31,26.375v3.25A1.376,1.376,0,0,0,32.375,31h0a1.35,1.35,0,0,1,1.285.895,12,12,0,0,0,.567,1.368,1.353,1.353,0,0,1-.276,1.543,1.375,1.375,0,0,0,0,1.945l2.3,2.3a1.375,1.375,0,0,0,1.945,0h0a1.353,1.353,0,0,1,1.543-.276,12,12,0,0,0,1.368.567,1.35,1.35,0,0,1,.9,1.285h0A1.376,1.376,0,0,0,43.375,42h3.25A1.376,1.376,0,0,0,48,40.625h0a1.35,1.35,0,0,1,.9-1.285,12,12,0,0,0,1.368-.567,1.353,1.353,0,0,1,1.543.276h0a1.375,1.375,0,0,0,1.945,0l2.3-2.3a1.375,1.375,0,0,0,0-1.945,1.353,1.353,0,0,1-.276-1.543,12,12,0,0,0,.567-1.368A1.35,1.35,0,0,1,57.624,31h0A1.376,1.376,0,0,0,59,29.625v-3.25A1.376,1.376,0,0,0,57.625,25ZM45,32a4,4,0,1,1,4-4A4,4,0,0,1,45,32Z"></path><path fill="#f3ac3c" d="M45,20a8,8,0,1,0,8,8A8,8,0,0,0,45,20Zm0,12a4,4,0,1,1,4-4A4,4,0,0,1,45,32Z"></path><polygon fill="#5bcbfa" points="3 55 45 55 45 3 14 3 3 14 3 55"></polygon><polygon fill="#48a3d2" points="14 3 14 14 3 14 14 3"></polygon><path fill="#ec455a" d="M25,24H18V17A7,7,0,0,1,25,24Z"></path><path fill="#f3ac3c" d="M15,27h7a7,7,0,1,1-7-7Z"></path><polygon fill="#ec455a" points="61 31 48 50 48 61 42 57 42 50 29 31 61 31"></polygon><path d="M18,25h7a1,1,0,0,0,1-1,7.953,7.953,0,0,0-.263-2H31V20H24.918A8,8,0,0,0,18,16a1,1,0,0,0-1,1v7A1,1,0,0,0,18,25Zm1-6.917A5.98,5.98,0,0,1,22.447,20H21v2h2.65a5.985,5.985,0,0,1,.267,1H19Z"></path><rect width="16" height="2" x="18" y="7"></rect><rect width="8" height="2" x="18" y="11"></rect><path d="M61.88,30.53A1,1,0,0,0,61,30H60V25a1,1,0,0,0-1-1H57.36a13.943,13.943,0,0,0-.79-1.91l1.16-1.16a1.008,1.008,0,0,0,0-1.42l-4.24-4.24a1.008,1.008,0,0,0-1.42,0l-1.16,1.16A13.943,13.943,0,0,0,49,15.64V14a1,1,0,0,0-1-1H46V3a1,1,0,0,0-1-1H14a1.033,1.033,0,0,0-.71.29l-11,11A1.033,1.033,0,0,0,2,14V55a1,1,0,0,0,1,1H41v1a1,1,0,0,0,.45.83l6,4A1,1,0,0,0,49,61V50.31L61.83,31.56A1,1,0,0,0,61.88,30.53ZM46,15h1v1.39a1,1,0,0,0,.75.97,10.979,10.979,0,0,1,2.83,1.17,1,1,0,0,0,1.21-.15l.99-.99,2.83,2.83-.99.99a1,1,0,0,0-.15,1.21,10.979,10.979,0,0,1,1.17,2.83,1,1,0,0,0,.97.75H58v4H53.77A8.974,8.974,0,0,0,46,19.06Zm0,6.08A7,7,0,0,1,52,28a7.114,7.114,0,0,1-.29,2H49.58A5,5,0,0,0,46,23.1Zm0,4.1A2.966,2.966,0,0,1,47.21,30H46ZM13,5.41V13H5.41ZM41,54H4V15H14a1,1,0,0,0,1-1V4H44V30H29a1,1,0,0,0-.83,1.56L41,50.31ZM57.05,35H53v2h2.68L47.17,49.44A1,1,0,0,0,47,50v9.13l-4-2.67V50a1,1,0,0,0-.17-.56L34.32,37H51V35H32.95L30.9,32H59.1Z"></path><path d="M22.74,29A8.242,8.242,0,0,0,23,27a1,1,0,0,0-1-1H16V20a1,1,0,0,0-1-1,8,8,0,1,0,6.92,12H27V29Zm-2.09,0H16v2h3.45A5.994,5.994,0,1,1,14,21.08V27a1,1,0,0,0,1,1h5.92A5.676,5.676,0,0,1,20.65,29Z"></path><rect width="4" height="4" x="10" y="45" fill="#f6cc4f"></rect><rect width="4" height="6" x="17" y="43" fill="#f6cc4f"></rect><rect width="4" height="9" x="24" y="40" fill="#f6cc4f"></rect><path d="M29,48V40a1,1,0,0,0-1-1H24a1,1,0,0,0-1,1v8H22V43a1,1,0,0,0-1-1H17a1,1,0,0,0-1,1v5H15V45a1,1,0,0,0-1-1H10a1,1,0,0,0-1,1v3H7v2H31V48ZM13,48H11V46h2Zm7,0H18V44h2Zm7,0H25V41h2Z"></path></svg>